<svg width="1154" height="95" viewBox="0 0 1154 95" fill="none" xmlns="http://www.w3.org/2000/svg">
<g clip-path="url(#clip0_2476_149)">
<path fill-rule="evenodd" clip-rule="evenodd" d="M-488 10C-488 4.47715 -483.523 0 -478 0H1422C1427.52 0 1432 4.47715 1432 10V94.99C1432 94.9955 1432 95 1431.99 95V95C1431.98 95 1431.98 94.9957 1431.98 94.9903C1431.45 81.6513 1420.47 71 1407 71H1148.52C1143.46 71 1139.3 67.1673 1137.81 62.3261C1131.54 41.8723 1112.51 27 1090 27H63C40.492 27 21.4576 41.8723 15.1878 62.3261C13.7038 67.1673 9.54451 71 4.48097 71H-463C-476.469 71 -487.45 81.6513 -487.98 94.9903C-487.98 94.9957 -487.985 95 -487.99 95V95C-487.996 95 -488 94.9955 -488 94.99V10Z" fill="#7027E2"/>
</g>
<defs>
<clipPath id="clip0_2476_149">
<rect width="1154" height="95" fill="white"/>
</clipPath>
</defs>
</svg>
